HIERARCHY
ROOT SimulationBone
{
	OFFSET 0.000000 0.000000 0.000000
	CHANNELS 6 Xposition Yposition Zposition Zrotation Yrotation Xrotation 
	JOINT Hips
	{
		OFFSET 0.000000 0.000000 0.000000
		CHANNELS 6 Xposition Yposition Zposition Zrotation Yrotation Xrotation 
		JOINT LeftUpLeg
		{
			OFFSET 0.103460 1.857825 10.548519
			CHANNELS 3 Zrotation Yrotation Xrotation
			JOINT LeftLeg
			{
				OFFSET 43.500008 -0.000019 0.000016
				CHANNELS 3 Zrotation Yrotation Xrotation
				JOINT LeftFoot
				{
					OFFSET 42.372192 0.000004 0.000011
					CHANNELS 3 Zrotation Yrotation Xrotation
					JOINT LeftToe
					{
						OFFSET 17.300001 0.000001 -0.000016
						CHANNELS 3 Zrotation Yrotation Xrotation
						End Site
						{
							OFFSET 0.000000 0.000000 0.000000
						}
					}
				}
			}
		}
		JOINT RightUpLeg
		{
			OFFSET 0.103460 1.857824 -10.548484
			CHANNELS 3 Zrotation Yrotation Xrotation
			JOINT RightLeg
			{
				OFFSET 43.500046 -0.000008 0.000031
				CHANNELS 3 Zrotation Yrotation Xrotation
				JOINT RightFoot
				{
					OFFSET 42.372261 0.000000 0.000010
					CHANNELS 3 Zrotation Yrotation Xrotation
					JOINT RightToe
					{
						OFFSET 17.299986 -0.000007 0.000010
						CHANNELS 3 Zrotation Yrotation Xrotation
						End Site
						{
							OFFSET 0.000000 0.000000 0.000000
						}
					}
				}
			}
		}
		JOINT Spine
		{
			OFFSET 6.901969 -2.603749 -0.000000
			CHANNELS 3 Zrotation Yrotation Xrotation
			JOINT Spine1
			{
				OFFSET 12.588099 0.000014 -0.000003
				CHANNELS 3 Zrotation Yrotation Xrotation
				JOINT Spine2
				{
					OFFSET 12.343207 0.000019 0.000011
					CHANNELS 3 Zrotation Yrotation Xrotation
					JOINT Neck
					{
						OFFSET 25.832890 -0.000025 -0.000002
						CHANNELS 3 Zrotation Yrotation Xrotation
						JOINT Head
						{
							OFFSET 11.766609 0.000013 -0.000004
							CHANNELS 3 Zrotation Yrotation Xrotation
							End Site
							{
								OFFSET 0.000000 0.000000 0.000000
							}
						}
					}
					JOINT LeftShoulder
					{
						OFFSET 19.745899 -1.480392 6.000105
						CHANNELS 3 Zrotation Yrotation Xrotation
						JOINT LeftArm
						{
							OFFSET 11.284097 -0.000017 -0.000023
							CHANNELS 3 Zrotation Yrotation Xrotation
							JOINT LeftForeArm
							{
								OFFSET 33.000065 -0.000020 0.000044
								CHANNELS 3 Zrotation Yrotation Xrotation
								JOINT LeftHand
								{
									OFFSET 25.200005 0.000023 0.000007
									CHANNELS 3 Zrotation Yrotation Xrotation
									End Site
									{
										OFFSET 0.000000 0.000000 0.000000
									}
								}
							}
						}
					}
					JOINT RightShoulder
					{
						OFFSET 19.746096 -1.480391 -6.000090
						CHANNELS 3 Zrotation Yrotation Xrotation
						JOINT RightArm
						{
							OFFSET 11.284126 -0.000026 -0.000012
							CHANNELS 3 Zrotation Yrotation Xrotation
							JOINT RightForeArm
							{
								OFFSET 33.000092 0.000010 0.000014
								CHANNELS 3 Zrotation Yrotation Xrotation
								JOINT RightHand
								{
									OFFSET 25.199760 0.000151 0.000418
									CHANNELS 3 Zrotation Yrotation Xrotation
									End Site
									{
										OFFSET 0.000000 0.000000 0.000000
									}
								}
							}
						}
					}
				}
			}
		}
	}
}
MOTION
Frames: 14
Frame Time: 0.016667
-30.461654 0.000000 -358.306295 0.000000 -79.979173 0.000000 -1.628792 90.235833 1.091745 89.558818 2.778045 179.750956 148.754391 -2.966784 177.420464 -66.952988 7.056657 -6.784167 77.087271 1.782796 -10.536865 21.454559 0.003106 0.000020 169.720252 -4.176438 -166.307172 -26.513467 -0.835001 3.887635 86.632179 -2.875838 -1.342734 21.454552 -0.003102 -0.000003 7.032539 0.393516 0.728675 4.057212 0.761556 1.470573 3.739191 0.770296 1.465932 5.729601 0.829394 13.395593 -24.524612 -1.653020 14.924181 160.105237 -80.797639 18.662608 19.712951 65.187131 30.595198 -36.132945 -9.985576 1.061905 6.330025 -2.359690 10.524877 -154.634042 84.078757 27.199841 -20.544609 -57.613703 -18.556346 -66.098410 20.684383 -2.730644 9.339927 2.441181 -41.459046 
-30.414315 0.000000 -356.816769 0.000000 -80.226993 0.000000 -1.593140 90.122360 1.011525 89.733743 2.764882 179.661179 148.335479 -2.667101 176.711720 -63.012906 7.252705 -6.568423 77.859975 1.726622 -10.494035 21.454557 0.003100 0.000019 170.686660 -4.147594 -166.329013 -26.977499 -0.755885 3.675375 87.549398 -2.713415 -1.319810 21.454551 -0.003104 -0.000003 7.090890 0.408573 0.845225 4.174885 0.786743 1.704519 3.856908 0.796889 1.699720 5.417959 0.573002 13.320203 -24.468815 -1.673992 14.801247 161.885016 -80.803235 16.860084 20.031376 65.443120 31.119669 -34.967631 -9.817024 1.023885 6.672667 -2.339688 10.258902 -154.793201 84.056095 27.039676 -23.650770 -56.727168 -15.534293 -66.833537 20.630936 -2.756939 9.541295 2.283496 -42.284583 
-30.366921 0.000000 -355.321506 0.000000 -80.488401 0.000000 -1.576232 90.077310 0.929650 89.844928 2.591879 179.536825 148.217602 -2.302137 175.800666 -58.229156 7.363359 -6.273981 78.170610 1.643035 -10.197138 21.454557 0.003105 0.000018 171.733774 -3.958041 -166.292511 -27.135749 -0.682988 3.370020 88.312941 -2.497585 -1.322060 21.454550 -0.003093 0.000000 7.139564 0.391718 0.955927 4.272670 0.748272 1.925557 3.954736 0.759751 1.920994 5.121640 0.243335 13.256896 -24.383113 -1.618142 14.642524 163.640755 -80.645942 15.088263 20.150594 65.501392 31.500752 -33.905976 -9.679387 0.991308 6.943852 -2.229807 10.215095 -155.079158 84.068965 26.750733 -26.652810 -55.862501 -12.746272 -67.372899 20.653418 -2.780543 9.609977 2.000311 -42.495646 
-30.318784 0.000000 -353.821391 0.000000 -80.757537 0.000000 -1.554411 90.061813 0.861310 89.893668 2.342381 179.417562 148.322529 -1.911496 174.790510 -52.805663 7.342800 -5.767497 78.022780 1.460234 -9.562812 21.454558 0.003112 0.000018 172.859466 -3.718594 -166.281570 -27.023521 -0.607074 3.063254 88.978895 -2.282167 -1.316674 21.454551 -0.003086 0.000003 7.168681 0.354940 1.058086 4.330831 0.670472 2.128615 4.012941 0.683175 2.124527 4.935986 -0.084338 13.206296 -24.282950 -1.473912 14.460192 165.039061 -80.409160 13.680912 20.270255 65.438776 31.853932 -32.943579 -9.551230 0.962315 7.143741 -2.066738 10.277381 -155.653804 84.065670 26.170765 -29.342485 -55.078705 -10.246221 -67.743147 20.642326 -2.795367 9.438342 1.983377 -42.327470 
-30.268476 0.000000 -352.314623 0.000000 -81.027944 0.000000 -1.506942 90.024749 0.820911 89.903474 2.131905 179.351109 148.599221 -1.565708 173.793070 -46.978215 7.134928 -4.930318 77.505638 1.100279 -8.617616 21.454558 0.003113 0.000018 174.054967 -3.569830 -166.401455 -26.728368 -0.517867 2.868938 89.611982 -2.135615 -1.265278 21.454551 -0.003095 0.000001 7.174290 0.318045 1.147415 4.341768 0.593297 2.305857 4.023924 0.607067 2.302236 4.949231 -0.342445 13.161522 -24.190740 -1.249439 14.267422 165.911892 -80.189422 12.805026 20.599300 65.349082 32.290024 -32.079764 -9.410206 0.935200 7.296280 -1.852098 10.341330 -156.601178 84.008075 25.215629 -31.559442 -54.435091 -8.064343 -67.983644 20.514466 -2.796441 8.985707 2.560287 -42.042405 
-30.211972 0.000000 -350.800616 0.000000 -81.293608 0.000000 -1.454377 89.987213 0.808139 89.886219 1.940640 179.366163 149.152179 -1.294906 172.786670 -40.750349 6.680331 -3.722480 76.829116 0.417204 -7.916565 21.454558 0.003112 0.000018 175.304742 -3.505991 -166.682721 -26.263261 -0.421959 2.836735 90.137445 -2.089073 -1.143354 21.454551 -0.003101 -0.000001 7.160158 0.281531 1.207561 4.313003 0.518370 2.424685 3.995191 0.532858 2.421512 5.178334 -0.575684 13.094059 -24.138233 -1.032195 14.067504 166.690901 -79.987882 12.022958 21.067574 65.225163 32.759307 -31.319493 -9.229270 0.907846 7.490779 -1.523718 10.367516 -158.042336 83.999704 23.760940 -33.441411 -53.954466 -6.222369 -68.055778 20.396002 -2.790811 8.295693 3.461230 -41.416084 
-30.146640 0.000000 -349.284220 0.000000 -81.549128 0.000000 -1.417086 89.972245 0.819831 89.846063 1.741289 179.472273 150.055090 -1.100183 171.757363 -34.187193 5.965929 -2.214978 76.157398 -0.702790 -8.053123 21.454558 0.003116 0.000018 176.586340 -3.504116 -167.096820 -25.638377 -0.342871 2.967819 90.490331 -2.142731 -0.940166 21.454551 -0.003088 0.000000 7.130684 0.244033 1.227713 4.253344 0.443289 2.463502 3.935541 0.458022 2.460774 5.593460 -0.817954 12.975132 -24.122033 -0.899354 13.857539 167.728523 -79.801110 10.976921 21.572750 65.061154 33.202731 -30.670488 -8.993363 0.879408 7.799725 -1.038191 10.359783 -160.091322 84.122343 21.690687 -35.143244 -53.629565 -4.743832 -67.924026 20.422523 -2.787198 7.452893 4.307788 -40.158054 
-30.072657 0.000000 -347.772147 0.000000 -81.789175 0.000000 -1.392377 89.938454 0.856752 89.770013 1.611832 179.619665 151.103290 -0.929200 170.854792 -27.829139 5.252480 -0.788501 75.323844 -2.117549 -9.248583 21.454558 0.003116 0.000018 177.855749 -3.622608 -167.460625 -24.928128 -0.349602 3.132999 90.785630 -2.211465 -0.685542 21.454551 -0.003074 0.000002 7.085076 0.216170 1.231338 4.161558 0.388431 2.469611 3.843760 0.403205 2.467212 6.047396 -0.948854 12.797440 -23.991067 -0.806463 13.621425 168.679908 -79.720972 10.013925 22.168151 64.952706 33.689616 -30.145394 -8.740236 0.852805 8.164536 -0.491297 10.424463 -162.333240 84.239171 19.426466 -36.629043 -53.396078 -3.624579 -67.641978 20.558279 -2.785182 6.597190 4.856013 -38.216758 
-29.989151 0.000000 -346.267164 0.000000 -82.008840 0.000000 -1.374007 89.841816 0.916726 89.662978 1.626898 179.754000 152.073811 -0.734681 170.180780 -22.273133 4.888339 0.238830 74.196174 -3.593763 -11.357653 21.454557 0.003107 0.000016 179.083249 -3.906718 -167.618283 -24.228008 -0.478106 3.203345 91.147259 -2.213320 -0.414418 21.454551 -0.003079 0.000002 7.026230 0.208075 1.242739 4.043727 0.373131 2.491938 3.725947 0.388025 2.489644 6.393754 -0.867560 12.568802 -23.593149 -0.681911 13.342481 169.263844 -79.826899 9.417585 22.909782 64.984817 34.287839 -29.755157 -8.514623 0.830626 8.500526 -0.003386 10.670855 -164.075081 84.225427 17.668549 -37.833610 -53.208138 -2.864060 -67.258201 20.733650 -2.781666 5.829051 5.035400 -35.683077 
-29.895000 0.000000 -344.767941 0.000000 -82.205664 0.000000 -1.350330 89.692207 0.977674 89.613160 1.741729 179.863538 152.950611 -0.492294 169.482265 -17.983179 4.948827 0.822782 73.042185 -4.713527 -13.161212 21.454557 0.003099 0.000015 -179.683617 -4.237109 -167.665735 -23.651620 -0.598561 3.188985 91.552374 -2.162112 -0.144048 21.454551 -0.003089 0.000001 6.977104 0.215858 1.255355 3.945679 0.389349 2.517264 3.627915 0.404381 2.514884 6.610659 -0.703770 12.324877 -22.917619 -0.471434 13.013342 169.954052 -80.033452 8.710001 23.683330 65.104036 34.905383 -29.499750 -8.336159 0.814041 8.742303 0.350864 11.125972 -165.051327 84.194262 16.683369 -38.806053 -53.145905 -2.463977 -66.712028 20.914850 -2.772122 5.115946 5.355543 -33.006304 
-29.793286 0.000000 -343.273427 0.000000 -82.382348 0.000000 -1.308203 89.510836 1.015391 89.702679 1.888756 179.949702 153.719752 -0.197999 168.521606 -15.393577 5.383740 0.987321 72.088505 -5.039074 -13.393798 21.454557 0.003102 0.000015 -178.411584 -4.463857 -167.687773 -23.328039 -0.580986 3.104273 91.947393 -2.072116 0.107385 21.454550 -0.003086 0.000001 6.958224 0.231224 1.257276 3.908266 0.420431 2.521554 3.590499 0.435493 2.518984 6.731352 -0.606371 12.097282 -22.031890 -0.139738 12.635335 171.258630 -80.222964 7.379350 24.358218 65.224394 35.440145 -29.367825 -8.217428 0.803780 8.852902 0.546507 11.728621 -165.328085 84.267236 16.403654 -39.610678 -53.291591 -2.399097 -65.965647 21.078790 -2.753368 4.453087 6.238678 -30.582610 
-29.687665 0.000000 -341.785824 0.000000 -82.544941 0.000000 -1.237200 89.310333 1.033204 89.908960 2.031641 -179.993025 154.179759 0.051496 167.473602 -14.848462 5.965462 0.874265 71.265646 -4.470897 -11.602353 21.454558 0.003108 0.000016 -177.203247 -4.504896 -167.489598 -23.430097 -0.455746 2.828408 92.303961 -1.865727 0.302010 21.454551 -0.003080 0.000001 6.960316 0.242414 1.245999 3.912661 0.443131 2.499392 3.594879 0.458071 2.496672 6.879962 -0.569314 11.881262 -21.172354 0.287565 12.228948 173.023922 -80.330790 5.583974 24.938418 65.259259 35.939087 -29.313545 -8.167976 0.799499 8.896419 0.706641 12.148787 -165.285507 84.371225 16.446118 -40.244170 -53.617219 -2.550561 -65.182612 21.209766 -2.730443 3.911292 7.201383 -28.197745 
-29.577214 0.000000 -340.309066 0.000000 -82.696900 0.000000 -1.135900 89.110929 1.041827 90.180772 2.131106 -179.972160 154.213240 0.164382 166.585924 -16.353403 6.433258 0.624177 70.608430 -3.124889 -7.933082 21.454558 0.003110 0.000017 -176.172755 -4.310655 -166.886798 -24.073276 -0.295648 2.255823 92.579090 -1.471515 0.432381 21.454552 -0.003083 0.000001 6.969738 0.237111 1.221693 3.931307 0.433124 2.450660 3.613508 0.447779 2.447989 7.134970 -0.568205 11.661692 -20.537330 0.768904 11.805459 174.971087 -80.315974 3.607777 25.405106 65.147987 36.428551 -29.295328 -8.191193 0.800694 8.951403 0.925731 12.113859 -165.299592 84.414821 16.431719 -40.661857 -54.082022 -2.829754 -64.532805 21.305416 -2.710628 3.551618 7.671720 -25.661020 
-29.460753 0.000000 -338.845601 0.000000 -82.838056 0.000000 -1.039310 88.971832 1.035431 90.457530 2.102884 -179.985157 154.204539 0.220898 165.998240 -18.639395 6.674384 0.354367 70.535035 -1.658913 -4.125196 21.454558 0.003110 0.000018 -175.345600 -3.860694 -166.021968 -25.096743 -0.169775 1.487337 92.646147 -0.936257 0.628351 21.454555 -0.003088 0.000000 6.985174 0.204206 1.185851 3.961364 0.368211 2.377940 3.643550 0.382429 2.375661 7.303354 -0.664073 11.416338 -20.006285 1.273228 11.335289 177.175995 -80.163123 1.373058 25.530582 64.939688 36.720283 -29.322889 -8.268996 0.806329 9.051846 1.039312 11.846409 -165.428777 84.429739 16.301331 -40.731842 -54.711657 -3.349515 -64.008147 21.408451 -2.696996 3.461256 7.614142 -23.525588 
